<svg xmlns="http://www.w3.org/2000/svg" id="Layer_1" x="0" y="0" version="1.1" viewBox="0 0 29 29" xml:space="preserve"><path d="M14.693 26.126c-.342 0-.686-.014-1.031-.043-6.016-.497-10.915-5.411-11.396-11.43a12.505 12.505 0 0 1 5.712-11.54 1.501 1.501 0 0 1 1.606-.016c.494.306.762.854.7 1.431-.179 1.659.051 3.3.682 4.878 1.454 3.631 4.688 6.175 8.439 6.64a10.431 10.431 0 0 0 5.307-.71 1.47 1.47 0 0 1 1.562.27 1.5 1.5 0 0 1 .44 1.551c-1.566 5.329-6.523 8.969-12.021 8.969zM8.227 5.389a10.505 10.505 0 0 0-3.968 9.104c.404 5.054 4.518 9.18 9.568 9.597 4.614.393 8.934-2.324 10.635-6.538a12.53 12.53 0 0 1-5.302.479c-4.474-.554-8.325-3.573-10.05-7.881a12.101 12.101 0 0 1-.883-4.761z"/></svg>